# xmcd
#
# Track frame offsets:
# 150
# 12684
# 25353
# 44716
# 55522
# 67336
# 78010
# 90869
# 103557
# 118295
# 129263
# 141003
# 153546
# 170772
#
# Disc length: 2501 seconds
#
#
# Revision: 0
# Processed by: cddbd v1.5.2PL0 Copyright (c) Steve Scherf et al.
# Submitted via: FreeRIP 2.945 
#
DISCID=bd09c30e
DTITLE=Bill Anderson - Sings Em' Again
DYEAR=1900
DGENRE=Country
TTITLE0=Bright Lights And Country Music
TTITLE1=I Love You Drops
TTITLE2=Golden Guitar
TTITLE3=Wild Weekend
TTITLE4=The Tip Of My Fingers
TTITLE5=I Get The Fever
TTITLE6=Still
TTITLE7=Po' Folks
TTITLE8=Mama Sang A Song
TTITLE9=Quits
TTITLE10=Three A. M.
TTITLE11=The Corner Of My Life
TTITLE12=Pass Me Not Oh Gentle Saviour
TTITLE13=Christmas In Your Arms
EXTD=
EXTT0=
EXTT1=
EXTT2=
EXTT3=
EXTT4=
EXTT5=
EXTT6=
EXTT7=
EXTT8=
EXTT9=
EXTT10=
EXTT11=
EXTT12=
EXTT13=
PLAYORDER=
